<mxfile host="app.diagrams.net" agent="Mozilla/5.0 (X11; Linux x86_64) AppleWebKit/537.36 (KHTML, like Gecko) Chrome/136.0.0.0 Safari/537.36" version="27.1.1">
  <diagram name="Page-1" id="YkcsRKTrT5b25uyPoUCb">
    <mxGraphModel dx="1130" dy="665" grid="1" gridSize="10" guides="1" tooltips="1" connect="1" arrows="1" fold="1" page="1" pageScale="1" pageWidth="827" pageHeight="1169" math="0" shadow="0">
      <root>
        <mxCell id="0" />
        <mxCell id="1" parent="0" />
        <mxCell id="Mc2E9vpqB3oN6EMjc5mp-8" style="edgeStyle=orthogonalEdgeStyle;rounded=0;orthogonalLoop=1;jettySize=auto;html=1;" parent="1" source="Mc2E9vpqB3oN6EMjc5mp-2" target="Mc2E9vpqB3oN6EMjc5mp-3" edge="1">
          <mxGeometry relative="1" as="geometry" />
        </mxCell>
        <mxCell id="Mc2E9vpqB3oN6EMjc5mp-12" value="text + &lt;b&gt;realm_backend id&lt;/b&gt;" style="edgeLabel;html=1;align=center;verticalAlign=middle;resizable=0;points=[];" parent="Mc2E9vpqB3oN6EMjc5mp-8" vertex="1" connectable="0">
          <mxGeometry x="-0.7" y="-1" relative="1" as="geometry">
            <mxPoint x="45" y="-21" as="offset" />
          </mxGeometry>
        </mxCell>
        <mxCell id="Mc2E9vpqB3oN6EMjc5mp-2" value="realm_frontend" style="shape=cylinder3;whiteSpace=wrap;html=1;boundedLbl=1;backgroundOutline=1;size=15;" parent="1" vertex="1">
          <mxGeometry x="170" y="270" width="80" height="140" as="geometry" />
        </mxCell>
        <mxCell id="Mc2E9vpqB3oN6EMjc5mp-3" value="runpod" style="rounded=1;whiteSpace=wrap;html=1;" parent="1" vertex="1">
          <mxGeometry x="480" y="360" width="130" height="100" as="geometry" />
        </mxCell>
        <mxCell id="Mc2E9vpqB3oN6EMjc5mp-4" value="realm_backend" style="shape=cylinder3;whiteSpace=wrap;html=1;boundedLbl=1;backgroundOutline=1;size=15;" parent="1" vertex="1">
          <mxGeometry x="170" y="470" width="80" height="140" as="geometry" />
        </mxCell>
        <mxCell id="Mc2E9vpqB3oN6EMjc5mp-6" style="edgeStyle=orthogonalEdgeStyle;rounded=0;orthogonalLoop=1;jettySize=auto;html=1;" parent="1" source="Mc2E9vpqB3oN6EMjc5mp-5" target="Mc2E9vpqB3oN6EMjc5mp-2" edge="1">
          <mxGeometry relative="1" as="geometry" />
        </mxCell>
        <mxCell id="Mc2E9vpqB3oN6EMjc5mp-5" value="Actor" style="shape=umlActor;verticalLabelPosition=bottom;verticalAlign=top;html=1;outlineConnect=0;" parent="1" vertex="1">
          <mxGeometry x="195" y="120" width="30" height="60" as="geometry" />
        </mxCell>
        <mxCell id="Mc2E9vpqB3oN6EMjc5mp-9" style="edgeStyle=orthogonalEdgeStyle;rounded=0;orthogonalLoop=1;jettySize=auto;html=1;exitX=0;exitY=0.75;exitDx=0;exitDy=0;entryX=1;entryY=0.5;entryDx=0;entryDy=0;entryPerimeter=0;startArrow=classic;startFill=1;" parent="1" source="Mc2E9vpqB3oN6EMjc5mp-3" target="Mc2E9vpqB3oN6EMjc5mp-4" edge="1">
          <mxGeometry relative="1" as="geometry" />
        </mxCell>
        <mxCell id="Mc2E9vpqB3oN6EMjc5mp-13" value="dfx get ggg data" style="edgeLabel;html=1;align=center;verticalAlign=middle;resizable=0;points=[];" parent="Mc2E9vpqB3oN6EMjc5mp-9" vertex="1" connectable="0">
          <mxGeometry x="0.1701" y="-1" relative="1" as="geometry">
            <mxPoint as="offset" />
          </mxGeometry>
        </mxCell>
        <mxCell id="Mc2E9vpqB3oN6EMjc5mp-11" value="LLM" style="shape=process;whiteSpace=wrap;html=1;backgroundOutline=1;" parent="1" vertex="1">
          <mxGeometry x="570" y="380" width="120" height="60" as="geometry" />
        </mxCell>
        <mxCell id="Mc2E9vpqB3oN6EMjc5mp-14" value="pre-instructed" style="text;html=1;align=center;verticalAlign=middle;whiteSpace=wrap;rounded=0;" parent="1" vertex="1">
          <mxGeometry x="600" y="340" width="135" height="40" as="geometry" />
        </mxCell>
      </root>
    </mxGraphModel>
  </diagram>
</mxfile>
